<?xml version="1.0" standalone="no"?>
<!DOCTYPE svg PUBLIC "-//W3C//DTD SVG 20010904//EN"
 "http://www.w3.org/TR/2001/REC-SVG-20010904/DTD/svg10.dtd">
<svg version="1.0" xmlns="http://www.w3.org/2000/svg"
 width="300.000000pt" height="300.000000pt" viewBox="0 0 300.000000 300.000000"
 preserveAspectRatio="xMidYMid meet">
<metadata>
Created by potrace 1.10, written by Peter Selinger 2001-2011
</metadata>
<g transform="translate(0.000000,300.000000) scale(0.100000,-0.100000)"
fill="#000000" stroke="none">
<path d="M50 2880 c-20 -20 -20 -33 -20 -883 0 -730 2 -866 14 -883 14 -18 33
-19 705 -19 l691 0 0 -223 c0 -203 -2 -223 -17 -228 -56 -18 -76 -30 -117 -70
-25 -26 -51 -63 -59 -87 l-14 -42 -509 -3 c-560 -2 -534 1 -534 -62 0 -61 -12
-60 539 -62 l503 -3 13 -39 c45 -130 198 -203 340 -162 72 22 156 100 176 164
l12 42 502 0 c474 0 503 1 518 18 19 21 22 54 7 83 -10 18 -27 19 -518 19
l-507 0 -18 45 c-29 70 -90 126 -169 155 l-28 10 0 222 0 223 678 -3 c676 -3
679 -2 705 18 l27 21 0 865 c0 851 0 864 -20 884 -20 20 -33 20 -1450 20
-1417 0 -1430 0 -1450 -20z m2866 -31 c12 -10 14 -156 14 -855 0 -816 -1 -844
-19 -853 -12 -7 -256 -11 -682 -11 -652 0 -664 -1 -684 -20 -19 -19 -20 -35
-22 -228 -1 -147 2 -215 10 -232 7 -14 35 -37 62 -52 50 -27 125 -100 125
-122 0 -7 13 -25 30 -41 l29 -28 485 -1 c374 -1 488 -4 498 -13 30 -31 -9 -34
-492 -34 -538 -1 -515 2 -544 -69 -23 -58 -84 -115 -146 -135 -118 -39 -231 6
-290 116 -16 31 -37 63 -46 70 -21 17 -46 18 -569 19 -245 0 -426 4 -435 10
-12 7 -12 12 -2 22 10 10 118 13 503 15 376 1 494 5 505 14 9 7 26 33 39 58
28 55 60 87 123 121 25 14 52 36 58 49 8 16 12 90 11 233 -2 208 -2 210 -26
229 -22 18 -48 19 -683 19 -435 0 -666 4 -679 10 -19 10 -19 30 -19 853 0 463
4 848 8 854 11 17 217 19 1661 16 847 -2 1167 -6 1177 -14z"/>
<path d="M189 2812 c-15 -2 -36 -13 -48 -26 l-21 -23 0 -769 0 -769 25 -22 26
-23 1329 0 1329 0 25 22 26 23 0 265 c0 146 0 495 0 775 l-1 510 -26 19 c-25
19 -64 19 -1332 20 -718 1 -1318 0 -1332 -2z m2654 -815 l2 -777 -1345 0
-1345 0 2 777 c2 428 3 779 3 781 0 1 603 1 1340 0 l1340 -3 3 -778z"/>
<path d="M1172 2460 c-22 -21 -22 -21 -22 -465 0 -432 1 -446 20 -465 11 -11
29 -20 39 -20 10 0 88 51 172 113 84 61 221 162 304 222 141 104 150 112 153
147 l3 36 -311 226 c-172 124 -317 226 -324 226 -7 0 -22 -9 -34 -20z m180
-122 c69 -51 187 -138 263 -193 190 -138 192 -140 179 -162 -10 -16 -350 -273
-507 -384 -98 -69 -92 -95 -95 386 -1 231 0 426 3 432 9 24 31 13 157 -79z"/>
<path d="M1257 2292 c-15 -16 -17 -49 -18 -296 0 -250 1 -280 17 -297 9 -10
25 -19 34 -19 10 0 71 38 136 85 66 46 149 106 185 132 37 26 74 59 83 73 21
36 9 51 -107 137 -276 206 -299 219 -330 185z m230 -156 c98 -71 182 -132 186
-136 4 -4 -78 -69 -183 -144 -104 -76 -193 -142 -196 -147 -20 -33 -24 17 -24
287 0 290 0 296 19 283 11 -8 100 -72 198 -143z"/>
<path d="M1441 560 c-50 -22 -85 -55 -108 -107 -30 -65 -25 -109 17 -177 77
-121 241 -113 319 15 44 72 16 192 -57 243 -42 28 -132 42 -171 26z m140 -52
c131 -74 77 -278 -74 -280 -83 -2 -147 57 -154 141 -11 124 117 202 228 139z"/>
</g>
</svg>
